<svg width="44" height="44" fill="none" xmlns="http://www.w3.org/2000/svg"><path fill-rule="evenodd" clip-rule="evenodd" d="M9 3C5.68629 3 3 5.68629 3 9v26c0 3.3137 2.68629 6 6 6h26c3.3137 0 6-2.6863 6-6V9c0-3.31371-2.6863-6-6-6H9Zm23.5 16.5555c1.2833 0 2.3333-1.1 2.3333-2.4444 0-1.3445-1.05-2.4445-2.3333-2.4445-1.2834 0-2.3334 1.1-2.3334 2.4445 0 .22.0234.4278.0817.6233l-4.1417 4.3511C25.92 22.0244 25.71 22 25.5 22c-.21 0-.42.0244-.6067.0855l-2.975-3.1166c.0583-.1956.0817-.4156.0817-.6356 0-1.3444-1.05-2.4444-2.3334-2.4444-1.2833 0-2.3333 1.1-2.3333 2.4444 0 .22.0233.44.0817.6356l-5.32 5.5611c-.1867-.0611-.385-.0856-.595-.0856-1.2834 0-2.33336 1.1-2.33336 2.4445 0 1.3444 1.04996 2.4444 2.33336 2.4444 1.2833 0 2.3333-1.1 2.3333-2.4444 0-.22-.0233-.4278-.0817-.6234l5.3084-5.5733c.1866.0611.3966.0856.6066.0856.21 0 .42-.0245.6067-.0856l2.975 3.1167c-.0583.1955-.0817.4155-.0817.6355 0 1.3445 1.05 2.4445 2.3334 2.4445 1.2833 0 2.3333-1.1 2.3333-2.4445 0-.22-.0233-.44-.0817-.6355L31.905 19.47c.1866.0611.385.0855.595.0855Z" fill="#6E78E8"/></svg>