<svg width="58" height="58" fill="none" xmlns="http://www.w3.org/2000/svg"><g filter="url(#a)"><rect x="10" y="7" width="38" height="38" rx="6" fill="#fff"/><path fill-rule="evenodd" clip-rule="evenodd" d="M16 7c-3.3137 0-6 2.68629-6 6v26c0 3.3137 2.6863 6 6 6h26c3.3137 0 6-2.6863 6-6V13c0-3.31371-2.6863-6-6-6H16Zm9.7523 15.5989c0 1.182.9084 1.941 3.7329 2.6752 2.8244.7341 5.848 1.941 5.848 5.4748 0 2.5507-1.9286 3.9567-4.3549 4.4171v2.6752h-3.7328v-2.7001c-2.389-.5101-4.4296-2.0406-4.5789-4.7655h2.7373c.1369 1.4682 1.1448 2.6129 3.708 2.6129 2.7498 0 3.3595-1.3687 3.3595-2.2272 0-1.1572-.6221-2.2521-3.7328-2.9987-3.4715-.8337-5.8481-2.2646-5.8481-5.1388 0-2.4015 1.9411-3.9692 4.355-4.4918v-2.6877h3.7328v2.725c2.6005.6346 3.907 2.6005 3.9941 4.7407h-2.7499c-.0746-1.5554-.8958-2.613-3.1106-2.613-2.1028 0-3.3596.9456-3.3596 2.3019Z" fill="#4A56E2"/></g><defs><filter id="a" x="-3" y="-3" width="64" height="64" filterUnits="userSpaceOnUse" color-interpolation-filters="sRGB"><feFlood flood-opacity="0" result="BackgroundImageFix"/><feColorMatrix in="SourceAlpha" values="0 0 0 0 0 0 0 0 0 0 0 0 0 0 0 0 0 0 127 0" result="hardAlpha"/><feOffset dy="3"/><feGaussianBlur stdDeviation="5"/><feColorMatrix values="0 0 0 0 0.290196 0 0 0 0 0.337255 0 0 0 0 0.886275 0 0 0 0.5 0"/><feBlend in2="BackgroundImageFix" result="effect1_dropShadow_7_72"/><feBlend in="SourceGraphic" in2="effect1_dropShadow_7_72" result="shape"/></filter></defs></svg>