<svg width="30" height="30" fill="none" xmlns="http://www.w3.org/2000/svg"><path d="M3.52059 7.14286 18.7187 2.88927l-.8048-1.66808c-.5266-1.08425-1.811-1.531997-2.8684-.992067L1.43994 7.14286h2.08065ZM23.2625 2.85718c-.1832 0-.3663.02732-.5495.08198l-3.4716 1.03841L8.6394 7.1429h17.2788l-.6494-2.60514c-.2497-1.01564-1.0906-1.68058-2.0063-1.68058Z" fill="#24CCA7"/><path d="M26.5873 8.03705H1.68782c-.53229 0-1.007304.24399-1.317242.62837-.141493.17715-.249298.38103-.3099379.60497C.0235822 9.41077 0 9.55784 0 9.70825V28.3287c0 .9225.754632 1.6712 1.68445 1.6712H26.5839c.9298 0 1.6845-.7487 1.6845-1.6712v-4.6626h-9.9955c-1.58 0-2.8636-1.2735-2.8636-2.841V17.1083c0-.7687.31-1.4673.8119-1.9787.4447-.4546 1.041-.7621 1.708-.8389.1112-.0134.2258-.0201.3403-.0201H28.2684V9.70825c.0033-.92251-.7513-1.6712-1.6811-1.6712Z" fill="#4A56E2"/><path d="M29.4508 15.8683c-.1684-.1537-.3672-.2707-.5895-.3476-.1719-.0568-.3538-.0902-.5458-.0902H18.2728c-.9298 0-1.6844.7487-1.6844 1.6712v3.7201c0 .9225.7546 1.6712 1.6844 1.6712h10.0427c.192 0 .3739-.0335.5458-.0903.2223-.0735.4211-.1938.5895-.3476.3369-.3041.5491-.7453.5491-1.2333v-3.7201c0-.488-.2122-.9292-.5491-1.2334Zm-7.6609 3.426c0 .4612-.3773.8356-.8422.8356h-.5592c-.4649 0-.8422-.3744-.8422-.8356v-.5548c0-.2674.1246-.5047.3234-.6552.1448-.1103.3234-.1804.5188-.1804h.5592c.4649 0 .8422.3743.8422.8356v.5548Z" fill="#4A56E2"/></svg>